<svg width="512" height="512" viewBox="0 0 512 512" fill="none" xmlns="http://www.w3.org/2000/svg">
  <rect width="512" height="512" rx="128" fill="#2A9D8F"/>
  <path d="M190 380V132H270C301.826 132 328.71 138.2 350.652 150.6C372.942 162.652 389.548 179.31 400.47 200.58C411.392 221.78 416.852 246.38 416.852 274.38C416.852 301.98 411.554 326.58 400.956 348.18C390.68 369.46 374.4 386.118 352.11 398.154C329.82 410.19 302.392 416.208 269.826 416.208H244.572L318.87 530H248.946L182.226 424.47H190V380ZM270 338.4C286.84 338.4 300.934 335.32 312.282 329.16C323.952 322.92 332.698 314.18 338.52 302.94C344.342 291.62 347.252 278.58 347.252 263.82C347.252 249.06 344.422 236.1 338.762 224.94C333.102 213.7 324.518 205.04 313.012 198.96C301.506 192.8 287.164 189.72 269.988 189.72H249.432V338.4H270Z" fill="white"/>
  <path d="M170 150 H 280 A 60 60 0 0 1 280 270 H 220 L 280 360 H 220 L 170 270 V 360 H 130 V 150 Z" fill="white" style="display:none;"/> <!-- Backup simplistic path -->
  <text x="50%" y="50%" font-family="sans-serif" font-weight="bold" font-size="300" fill="white" text-anchor="middle" dy=".35em" style="display:none">R</text>
  <path d="M160 140 H 260 C 330 140 330 240 260 240 H 210 V 360 H 160 V 140 M 210 180 V 200 H 260 C 280 200 280 180 260 180 H 210 Z L 275 360 H 215 L 175 240" fill="white" stroke="white" stroke-width="0" transform="scale(1.2) translate(50, 40)" />
</svg>
